<?xml version="1.0" standalone="no"?>
<!DOCTYPE svg PUBLIC "-//W3C//DTD SVG 20010904//EN"
 "http://www.w3.org/TR/2001/REC-SVG-20010904/DTD/svg10.dtd">
<svg version="1.0" xmlns="http://www.w3.org/2000/svg"
 width="50.000000pt" height="50.000000pt" viewBox="0 0 50.000000 50.000000"
 preserveAspectRatio="xMidYMid meet">

<g transform="translate(0.000000,50.000000) scale(0.100000,-0.100000)"
fill="#000000" stroke="none">
<path d="M135 280 l-110 -110 38 -37 37 -38 75 75 75 74 75 -74 75 -75 37 38
38 37 -110 110 c-60 60 -112 110 -115 110 -3 0 -55 -50 -115 -110z m215 -15
l95 -95 -23 -22 -22 -22 -75 74 -75 74 -75 -74 -75 -74 -22 22 -23 22 95 95
c52 52 97 95 100 95 3 0 48 -43 100 -95z"/>
</g>
</svg>
